# xmcd
#
# Track frame offsets:
#	150
#	10475
#	29427
#	55230
#	76615
#	101087
#	125075
#	135332
#	157075
#	173925
#	190000
#	222930
#
# Disc length: 3341 seconds
#
# Revision: 1
# Processed by: cddbd v1.5PL3 Copyright (c) Steve Scherf et al.
# Submitted via: CDex 1.50Beta5
#
DISCID=a00d0b0c
DTITLE=スチャダラパー - WILD FANCY ALLIANCE
DYEAR=1993
DGENRE=Rock
TTITLE0=プロロローグ
TTITLE1=ヒマの過ごし方
TTITLE2=クラッカーMC’S
TTITLE3=PROTECT HIM
TTITLE4=Kick it JAWS
TTITLE5=トリオ ザ キップス改
TTITLE6=後者
TTITLE7=ついてる男
TTITLE8=WILD FANCY SAMPLER
TTITLE9=そ・れ・ば・な
TTITLE10=Little Bird Strut
TTITLE11=後方からの手紙
EXTD=
EXTT0=
EXTT1=
EXTT2=
EXTT3=
EXTT4=
EXTT5=
EXTT6=
EXTT7=
EXTT8=
EXTT9=
EXTT10=
EXTT11=
PLAYORDER=
